<svg xmlns="http://www.w3.org/2000/svg" width="40" height="40" viewBox="0 0 40 40">
  <path id="email" d="M-10564-1610a19.877,19.877,0,0,1-7.785-1.572,19.931,19.931,0,0,1-6.358-4.286,19.945,19.945,0,0,1-4.286-6.358A19.871,19.871,0,0,1-10584-1630a19.864,19.864,0,0,1,1.571-7.784,19.944,19.944,0,0,1,4.286-6.357,19.93,19.93,0,0,1,6.358-4.286A19.877,19.877,0,0,1-10564-1650a19.875,19.875,0,0,1,7.784,1.572,19.945,19.945,0,0,1,6.357,4.286,19.943,19.943,0,0,1,4.286,6.357A19.864,19.864,0,0,1-10544-1630a19.871,19.871,0,0,1-1.571,7.786,19.946,19.946,0,0,1-4.286,6.358,19.935,19.935,0,0,1-6.357,4.286A19.875,19.875,0,0,1-10564-1610Zm-9.836-29a2.168,2.168,0,0,0-2.165,2.165v14.431a2.168,2.168,0,0,0,2.165,2.165h20.3a2.168,2.168,0,0,0,2.165-2.165v-14.431a2.168,2.168,0,0,0-2.165-2.165Zm20,17.316h-19.7l6.956-6.954,2.434,2.417a.723.723,0,0,0,.51.209.717.717,0,0,0,.51-.211l2.375-2.377,6.916,6.915Zm1.02-1.02,0,0-6.912-6.915,6.914-6.917v13.834Zm-21.741,0v-13.839l6.951,6.89-6.949,6.947Zm10.917-5.05h0l-9.888-9.8h19.693l-9.8,9.8Z" transform="translate(10584 1650)"/>
</svg>
