<svg id="instagram" xmlns="http://www.w3.org/2000/svg" width="40" height="40" viewBox="0 0 40 40">
  <path id="Path_1" data-name="Path 1" d="M215.1,211.05a4.05,4.05,0,1,1-4.05-4.05A4.05,4.05,0,0,1,215.1,211.05Zm0,0" transform="translate(-191.05 -191.05)"/>
  <path id="Path_2" data-name="Path 2" d="M154.917,138.283a4.024,4.024,0,0,0-2.306-2.306,6.723,6.723,0,0,0-2.256-.418c-1.281-.058-1.666-.071-4.91-.071s-3.629.012-4.91.071a6.727,6.727,0,0,0-2.256.418,4.025,4.025,0,0,0-2.306,2.306,6.725,6.725,0,0,0-.418,2.256c-.058,1.281-.071,1.665-.071,4.91s.013,3.628.071,4.91a6.723,6.723,0,0,0,.418,2.256,4.024,4.024,0,0,0,2.306,2.306,6.714,6.714,0,0,0,2.256.418c1.281.058,1.665.071,4.91.071s3.629-.012,4.91-.071a6.714,6.714,0,0,0,2.256-.418,4.024,4.024,0,0,0,2.306-2.306,6.728,6.728,0,0,0,.418-2.256c.058-1.281.071-1.666.071-4.91s-.012-3.629-.071-4.91A6.714,6.714,0,0,0,154.917,138.283Zm-9.472,13.4a6.239,6.239,0,1,1,6.239-6.239A6.239,6.239,0,0,1,145.446,151.688Zm6.486-11.267a1.458,1.458,0,1,1,1.458-1.458A1.458,1.458,0,0,1,151.931,140.421Zm0,0" transform="translate(-125.446 -125.449)"/>
  <path id="Path_3" data-name="Path 3" d="M20,0A20,20,0,1,0,40,20,20,20,0,0,0,20,0ZM31.415,24.735a8.426,8.426,0,0,1-.534,2.788,5.872,5.872,0,0,1-3.359,3.359,8.432,8.432,0,0,1-2.787.534c-1.225.056-1.616.069-4.735.069s-3.51-.013-4.735-.069a8.432,8.432,0,0,1-2.787-.534,5.872,5.872,0,0,1-3.359-3.359,8.424,8.424,0,0,1-.534-2.787c-.056-1.225-.07-1.616-.07-4.735s.013-3.51.069-4.735a8.427,8.427,0,0,1,.533-2.788,5.876,5.876,0,0,1,3.359-3.359,8.434,8.434,0,0,1,2.788-.534c1.225-.056,1.616-.069,4.735-.069s3.51.013,4.735.07a8.435,8.435,0,0,1,2.788.533,5.874,5.874,0,0,1,3.359,3.359,8.425,8.425,0,0,1,.534,2.788c.056,1.225.069,1.616.069,4.735S31.471,23.51,31.415,24.735Zm0,0"/>
</svg>
