<svg xmlns="http://www.w3.org/2000/svg" width="40" height="40" viewBox="0 0 40 40">
  <path id="medium" d="M-10564,2428a19.879,19.879,0,0,1-7.785-1.572,19.939,19.939,0,0,1-6.358-4.286,19.947,19.947,0,0,1-4.286-6.357A19.865,19.865,0,0,1-10584,2408a19.872,19.872,0,0,1,1.571-7.786,19.945,19.945,0,0,1,4.286-6.358,19.938,19.938,0,0,1,6.358-4.286A19.879,19.879,0,0,1-10564,2388a19.877,19.877,0,0,1,7.784,1.572,19.942,19.942,0,0,1,6.357,4.286,19.95,19.95,0,0,1,4.286,6.358A19.872,19.872,0,0,1-10544,2408a19.865,19.865,0,0,1-1.571,7.784,19.947,19.947,0,0,1-4.286,6.357,19.942,19.942,0,0,1-6.357,4.286A19.877,19.877,0,0,1-10564,2428Zm4.668-23.689h0v10.875c0,.288,0,.348-.187.534l-1.941,1.878v.4h9.414v-.4l-1.87-1.83a.559.559,0,0,1-.215-.534v-13.467a.554.554,0,0,1,.212-.534l1.915-1.833v-.4h-6.633l-4.728,11.77-5.379-11.77h-6.957v.4l2.236,2.694a.941.941,0,0,1,.3.783v10.583a1.211,1.211,0,0,1-.324,1.052l-2.519,3.052v.4h7.146v-.4l-2.521-3.047a1.24,1.24,0,0,1-.346-1.052v-9.153l6.271,13.658h.728Z" transform="translate(10584 -2388)"/>
</svg>
